<svg width="34" height="21" viewBox="0 0 34 21" fill="none" xmlns="http://www.w3.org/2000/svg">
<path d="M7.848 17.192C6.712 17.192 5.776 16.976 5.04 16.544C4.304 16.096 3.904 15.504 3.84 14.768L4.536 14.576C4.536 15.12 4.84 15.576 5.448 15.944C6.072 16.296 6.872 16.472 7.848 16.472C8.856 16.472 9.672 16.288 10.296 15.92C10.936 15.552 11.256 15.08 11.256 14.504C11.256 13.96 10.992 13.52 10.464 13.184C9.936 12.848 9.216 12.552 8.304 12.296L6.816 11.864C4.832 11.288 3.336 10.56 2.328 9.68C1.32 8.8 0.816 7.592 0.816 6.056C0.816 4.952 1.12 3.976 1.728 3.128C2.352 2.264 3.192 1.584 4.248 1.088C5.32 0.591999 6.528 0.343998 7.872 0.343998C9.088 0.343998 10.184 0.543999 11.16 0.943999C12.152 1.328 12.968 1.88 13.608 2.6C14.264 3.32 14.68 4.16 14.856 5.12L14.16 5.312C14.016 4.464 13.656 3.72 13.08 3.08C12.504 2.44 11.768 1.944 10.872 1.592C9.976 1.24 8.976 1.064 7.872 1.064C6.656 1.064 5.568 1.288 4.608 1.736C3.664 2.168 2.912 2.76 2.352 3.512C1.808 4.264 1.536 5.128 1.536 6.104C1.536 7.416 1.992 8.472 2.904 9.272C3.832 10.056 5.2 10.696 7.008 11.192L8.496 11.6C9.6 11.904 10.456 12.272 11.064 12.704C11.672 13.136 11.976 13.72 11.976 14.456C11.976 15.272 11.6 15.936 10.848 16.448C10.096 16.944 9.096 17.192 7.848 17.192ZM7.848 18.776C6.344 18.776 5.08 18.448 4.056 17.792C3.048 17.12 2.456 16.248 2.28 15.176L3 14.984C3.128 15.912 3.624 16.656 4.488 17.216C5.368 17.776 6.488 18.056 7.848 18.056C8.84 18.056 9.712 17.904 10.464 17.6C11.216 17.296 11.8 16.872 12.216 16.328C12.632 15.784 12.84 15.16 12.84 14.456C12.84 13.48 12.472 12.712 11.736 12.152C11 11.576 9.984 11.112 8.688 10.76L7.224 10.352C5.672 9.92 4.48 9.376 3.648 8.72C2.816 8.064 2.4 7.192 2.4 6.104C2.4 5.288 2.632 4.568 3.096 3.944C3.576 3.32 4.232 2.832 5.064 2.48C5.896 2.112 6.832 1.928 7.872 1.928C8.848 1.928 9.72 2.08 10.488 2.384C11.272 2.672 11.912 3.088 12.408 3.632C12.904 4.176 13.208 4.808 13.32 5.528L12.6 5.72C12.488 4.792 11.992 4.048 11.112 3.488C10.248 2.928 9.168 2.648 7.872 2.648C6.96 2.648 6.144 2.8 5.424 3.104C4.704 3.392 4.136 3.8 3.72 4.328C3.32 4.84 3.12 5.432 3.12 6.104C3.12 7.016 3.48 7.736 4.2 8.264C4.936 8.792 6 9.256 7.392 9.656L8.832 10.064C10.32 10.48 11.48 11.032 12.312 11.72C13.144 12.392 13.56 13.304 13.56 14.456C13.56 15.304 13.32 16.056 12.84 16.712C12.36 17.352 11.688 17.856 10.824 18.224C9.976 18.592 8.984 18.776 7.848 18.776ZM7.848 20.36C6.6 20.36 5.472 20.168 4.464 19.784C3.472 19.384 2.648 18.832 1.992 18.128C1.352 17.408 0.936 16.56 0.744 15.584L1.44 15.392C1.6 16.256 1.96 17.008 2.52 17.648C3.096 18.272 3.84 18.76 4.752 19.112C5.664 19.464 6.696 19.64 7.848 19.64C9.16 19.64 10.304 19.424 11.28 18.992C12.272 18.544 13.04 17.936 13.584 17.168C14.144 16.384 14.424 15.48 14.424 14.456C14.424 13.096 13.952 12.008 13.008 11.192C12.064 10.376 10.736 9.72 9.024 9.224L7.608 8.816C6.44 8.48 5.544 8.112 4.92 7.712C4.296 7.312 3.984 6.776 3.984 6.104C3.984 5.32 4.352 4.696 5.088 4.232C5.824 3.752 6.752 3.512 7.872 3.512C8.96 3.512 9.856 3.736 10.56 4.184C11.264 4.632 11.664 5.216 11.76 5.936L11.064 6.128C11.032 5.568 10.72 5.112 10.128 4.76C9.552 4.408 8.8 4.232 7.872 4.232C6.992 4.232 6.24 4.4 5.616 4.736C5.008 5.072 4.704 5.512 4.704 6.056C4.704 6.552 4.984 6.952 5.544 7.256C6.12 7.56 6.872 7.848 7.8 8.12L9.168 8.528C11.104 9.104 12.584 9.856 13.608 10.784C14.632 11.696 15.144 12.936 15.144 14.504C15.144 15.64 14.832 16.656 14.208 17.552C13.6 18.432 12.744 19.12 11.64 19.616C10.552 20.112 9.288 20.36 7.848 20.36ZM33.0278 20V0.704H33.7478V20H33.0278ZM29.8598 20V0.704H30.5798V20H29.8598ZM31.4438 20V0.704H32.1638V20H31.4438ZM20.2118 20V0.704H20.9318V20H20.2118ZM17.0438 20V0.704H17.7638V20H17.0438ZM18.6278 20V0.704H19.3478V20H18.6278ZM28.9958 13.352L21.7958 3.008V1.736L28.9958 12.08V13.352ZM28.9958 16.136L21.7958 5.792V4.52L28.9958 14.864V16.136ZM28.9958 18.92L21.7958 8.576V7.304L28.9958 17.648V18.92Z" fill="black"/>
</svg>
